{"title":"Skyscraper 2018 Movies 720p BluRay x264 AAC ESubs +Sample ☻rDX☻","magnet":"magnet:?xt=urn:btih:270cfd0e39fa48a4c73be6fe976136fe92bb20bf&dn=Skyscraper+2018+Movies+720p+BluRay+x264+AAC+ESubs+%2BSample+%E2%98%BBrDX%E2%98%BB&tr=udp%3A%2F%2Ftracker.leechers-paradise.org%3A6969&tr=udp%3A%2F%2Fzer0day.ch%3A1337&tr=udp%3A%2F%2Fopen.demonii.com%3A1337&tr=udp%3A%2F%2Ftracker.coppersurfer.tk%3A6969&tr=udp%3A%2F%2Fexodus.desync.com%3A6969","uploader":"basicssom","categoryP":"video","categoryS":"hd___movies","size":"829270232","seeders":"7","leechers":"7","description":"Skyscraper 2018 Movies 720p BluRay x264 AAC ESubs with Sample &#x263B;rDX&#x263B;\r\n\r\nSCREEN SHOTS &amp; POSTER:\r\n   <a href=\"\nhttps://iphonehosting.eu/2018/9/a/realestate/index.html\" rel=\"nofollow\" target=\"_NEW\">\nhttps://iphonehosting.eu/2018/9/a/realestate/index.html</a> <a href=\"\nhttps://iphonehosting.eu/2018/9/a/realestate/1.html\" rel=\"nofollow\" target=\"_NEW\">\nhttps://iphonehosting.eu/2018/9/a/realestate/1.html</a> <a href=\"\nhttps://iphonehosting.eu/2018/9/a/realestate/2.html\" rel=\"nofollow\" target=\"_NEW\">\nhttps://iphonehosting.eu/2018/9/a/realestate/2.html</a>   <a href=\"\nhttps://iphonehosting.eu/2018/9/a/realestate/3.html\" rel=\"nofollow\" target=\"_NEW\">\nhttps://iphonehosting.eu/2018/9/a/realestate/3.html</a>   <a href=\"\nhttps://iphonehosting.eu/2018/9/a/realestate/4.html\" rel=\"nofollow\" target=\"_NEW\">\nhttps://iphonehosting.eu/2018/9/a/realestate/4.html</a>   <a href=\"\nhttps://iphonehosting.eu/2018/9/a/realestate/5.html\" rel=\"nofollow\" target=\"_NEW\">\nhttps://iphonehosting.eu/2018/9/a/realestate/5.html</a>   <a href=\"\nhttps://iphonehosting.eu/2018/9/a/realestate/6.html\" rel=\"nofollow\" target=\"_NEW\">\nhttps://iphonehosting.eu/2018/9/a/realestate/6.html</a>   <a href=\"\nhttps://iphonehosting.eu/2018/9/a/realestate/7.html\" rel=\"nofollow\" target=\"_NEW\">\nhttps://iphonehosting.eu/2018/9/a/realestate/7.html</a>   <a href=\"\nhttps://iphonehosting.eu/2018/9/a/realestate/8.html\" rel=\"nofollow\" target=\"_NEW\">\nhttps://iphonehosting.eu/2018/9/a/realestate/8.html</a>   <a href=\"\nhttps://iphonehosting.eu/2018/9/a/realestate/9.html\" rel=\"nofollow\" target=\"_NEW\">\nhttps://iphonehosting.eu/2018/9/a/realestate/9.html</a>   <a href=\"\nhttps://iphonehosting.eu/2018/9/a/realestate/10.html\" rel=\"nofollow\" target=\"_NEW\">\nhttps://iphonehosting.eu/2018/9/a/realestate/10.html</a>\r\n\r\nFile size                                : 783 MiB\r\nDuration                                 : 1 h 42 min\r\nOverall bit rate                         : 1 069 kb/s\r\nMovie name                               : Skyscraper 2018 Movies 720p BluRay x264 AAC ESubs &#x263B;rDX&#x263B;\r\n\r\nVideo\r\nID                                       : 3\r\nFormat                                   : AVC\r\nFormat/Info                              : Advanced Video Codec\r\nFormat profile                           : Main@L3.1\r\nFormat settings, CABAC                   : Yes\r\nFormat settings, ReFrames                : 2 frames\r\nFormat settings, GOP                     : M=1, N=25\r\nCodec ID                                 : V_MPEG4/ISO/AVC\r\nDuration                                 : 1 h 42 min\r\nBit rate mode                            : Constant\r\nBit rate                                 : 1 000 kb/s\r\nWidth                                    : 1 280 pixels\r\nHeight                                   : 534 pixels\r\nDisplay aspect ratio                     : 2.40:1\r\nFrame rate mode                          : Constant\r\nFrame rate                               : 29.970 (30000/1001) FPS\r\nColor space                              : YUV\r\nChroma subsampling                       : 4:2:0\r\nBit depth                                : 8 bits\r\nScan type                                : Progressive\r\nBits/(Pixel*Frame)                       : 0.049\r\nStream size                              : 720 MiB (92%)\r\nTitle                                    : &#x263B;rDX&#x263B;\r\nDefault                                  : Yes\r\nForced                                   : No\r\n\r\nAudio\r\nID                                       : 1\r\nFormat                                   : MPEG Audio\r\nFormat version                           : Version 1\r\nFormat profile                           : Layer 3\r\nMode                                     : Joint stereo\r\nMode extension                           : MS Stereo\r\nCodec ID                                 : A_MPEG/L3\r\nCodec ID/Hint                            : MP3\r\nDuration                                 : 1 h 42 min\r\nBit rate mode                            : Constant\r\nBit rate                                 : 64.0 kb/s\r\nChannel(s)                               : 2 channels\r\nSampling rate                            : 44.1 kHz\r\nCompression mode                         : Lossy\r\nStream size                              : 46.9 MiB (6%)\r\nTitle                                    : &#x263B;rDX&#x263B;\r\nDefault                                  : Yes\r\nForced                                   : No\r\n <a href=\"\nhttps://www.imdb.com/title/tt5758778/\" rel=\"nofollow\" target=\"_NEW\">\nhttps://www.imdb.com/title/tt5758778/</a>","last_updated":"2018-09-28T13:47:04.867Z","parsed":{"xt":"urn:btih:270cfd0e39fa48a4c73be6fe976136fe92bb20bf","dn":"Skyscraper 2018 Movies 720p BluRay x264 AAC ESubs  Sample ☻rDX☻","tr":["udp://exodus.desync.com:6969","udp://open.demonii.com:1337","udp://tracker.coppersurfer.tk:6969","udp://tracker.leechers-paradise.org:6969","udp://zer0day.ch:1337"],"infoHash":"270cfd0e39fa48a4c73be6fe976136fe92bb20bf","infoHashBuffer":{"type":"Buffer","data":[39,12,253,14,57,250,72,164,199,59,230,254,151,97,54,254,146,187,32,191]},"name":"Skyscraper 2018 Movies 720p BluRay x264 AAC ESubs  Sample ☻rDX☻","announce":["udp://exodus.desync.com:6969","udp://open.demonii.com:1337","udp://tracker.coppersurfer.tk:6969","udp://tracker.leechers-paradise.org:6969","udp://zer0day.ch:1337"],"urlList":[]}}